<svg xmlns="http://www.w3.org/2000/svg" viewBox="0 0 64 64">
  <!-- Background circle -->
  <circle cx="32" cy="32" r="32" fill="#020c1f"/>
  <!-- Ball -->
  <circle cx="32" cy="32" r="18" fill="white" stroke="#ccc" stroke-width="0.5"/>
  <!-- Pentagon patches -->
  <polygon points="32,16 38,21 36,28 28,28 26,21" fill="#111"/>
  <polygon points="44,26 49,32 45,39 38,37 38,29" fill="#111"/>
  <polygon points="40,43 33,46 26,43 26,36 34,33 40,36" fill="#111"/>
  <polygon points="20,43 15,37 19,30 26,32 26,40" fill="#111"/>
  <polygon points="20,26 26,21 34,24 34,31 27,33 20,30" fill="#111"/>
  <!-- Gold ring -->
  <circle cx="32" cy="32" r="18" fill="none" stroke="#f5b800" stroke-width="1.5"/>
</svg>
